<mxfile host="Electron" modified="2024-05-16T07:22:37.325Z" agent="Mozilla/5.0 (Windows NT 10.0; Win64; x64) AppleWebKit/537.36 (KHTML, like Gecko) draw.io/23.1.5 Chrome/120.0.6099.109 Electron/28.1.0 Safari/537.36" etag="jyqHzxHbhOdT2Qe1PUIW" version="23.1.5" type="device">
  <diagram name="Strona-1" id="tlqDm6693eoSsYzq3DNQ">
    <mxGraphModel dx="1247" dy="832" grid="1" gridSize="10" guides="1" tooltips="1" connect="1" arrows="1" fold="1" page="1" pageScale="1" pageWidth="583" pageHeight="413" math="0" shadow="0">
      <root>
        <mxCell id="0" />
        <mxCell id="1" parent="0" />
        <mxCell id="iEyy7_naw8qGL7nsyMTN-14" style="edgeStyle=orthogonalEdgeStyle;rounded=0;orthogonalLoop=1;jettySize=auto;html=1;exitX=1;exitY=0.5;exitDx=0;exitDy=0;entryX=0;entryY=0.5;entryDx=0;entryDy=0;" parent="1" source="iEyy7_naw8qGL7nsyMTN-2" target="iEyy7_naw8qGL7nsyMTN-3" edge="1">
          <mxGeometry relative="1" as="geometry" />
        </mxCell>
        <mxCell id="iEyy7_naw8qGL7nsyMTN-2" value="&lt;font style=&quot;font-size: 18px;&quot;&gt;Framing&lt;/font&gt;" style="rounded=0;whiteSpace=wrap;html=1;" parent="1" vertex="1">
          <mxGeometry x="100" y="110" width="100" height="50" as="geometry" />
        </mxCell>
        <mxCell id="iEyy7_naw8qGL7nsyMTN-9" style="edgeStyle=orthogonalEdgeStyle;rounded=0;orthogonalLoop=1;jettySize=auto;html=1;exitX=1;exitY=0.5;exitDx=0;exitDy=0;entryX=0.5;entryY=0;entryDx=0;entryDy=0;" parent="1" source="iEyy7_naw8qGL7nsyMTN-3" target="iEyy7_naw8qGL7nsyMTN-6" edge="1">
          <mxGeometry relative="1" as="geometry" />
        </mxCell>
        <mxCell id="iEyy7_naw8qGL7nsyMTN-3" value="&lt;font style=&quot;font-size: 18px;&quot;&gt;Windowing&lt;/font&gt;" style="rounded=0;whiteSpace=wrap;html=1;" parent="1" vertex="1">
          <mxGeometry x="300" y="110" width="100" height="50" as="geometry" />
        </mxCell>
        <mxCell id="iEyy7_naw8qGL7nsyMTN-11" style="edgeStyle=orthogonalEdgeStyle;rounded=0;orthogonalLoop=1;jettySize=auto;html=1;exitX=0;exitY=0.5;exitDx=0;exitDy=0;entryX=1;entryY=0.5;entryDx=0;entryDy=0;" parent="1" source="iEyy7_naw8qGL7nsyMTN-5" target="iEyy7_naw8qGL7nsyMTN-7" edge="1">
          <mxGeometry relative="1" as="geometry" />
        </mxCell>
        <mxCell id="iEyy7_naw8qGL7nsyMTN-5" value="&lt;font style=&quot;font-size: 18px;&quot;&gt;Mel Frequency Transform&lt;/font&gt;" style="rounded=0;whiteSpace=wrap;html=1;" parent="1" vertex="1">
          <mxGeometry x="260" y="240" width="130" height="50" as="geometry" />
        </mxCell>
        <mxCell id="iEyy7_naw8qGL7nsyMTN-10" style="edgeStyle=orthogonalEdgeStyle;rounded=0;orthogonalLoop=1;jettySize=auto;html=1;exitX=0;exitY=0.5;exitDx=0;exitDy=0;entryX=1;entryY=0.5;entryDx=0;entryDy=0;" parent="1" source="iEyy7_naw8qGL7nsyMTN-6" target="iEyy7_naw8qGL7nsyMTN-5" edge="1">
          <mxGeometry relative="1" as="geometry" />
        </mxCell>
        <mxCell id="iEyy7_naw8qGL7nsyMTN-6" value="&lt;font style=&quot;font-size: 18px;&quot;&gt;Fast Fourier Transform&lt;/font&gt;" style="rounded=0;whiteSpace=wrap;html=1;" parent="1" vertex="1">
          <mxGeometry x="450" y="240" width="100" height="50" as="geometry" />
        </mxCell>
        <mxCell id="iEyy7_naw8qGL7nsyMTN-13" value="&lt;i&gt;&lt;font style=&quot;font-size: 18px;&quot;&gt;MFCC&lt;/font&gt;&lt;/i&gt;" style="edgeStyle=orthogonalEdgeStyle;rounded=0;orthogonalLoop=1;jettySize=auto;html=1;exitX=0;exitY=0.5;exitDx=0;exitDy=0;" parent="1" source="iEyy7_naw8qGL7nsyMTN-7" edge="1">
          <mxGeometry x="0.1201" y="-15" relative="1" as="geometry">
            <mxPoint x="10" y="265" as="targetPoint" />
            <mxPoint as="offset" />
          </mxGeometry>
        </mxCell>
        <mxCell id="iEyy7_naw8qGL7nsyMTN-7" value="&lt;font style=&quot;font-size: 18px;&quot;&gt;Cepstrum&lt;/font&gt;" style="rounded=0;whiteSpace=wrap;html=1;" parent="1" vertex="1">
          <mxGeometry x="100" y="240" width="100" height="50" as="geometry" />
        </mxCell>
        <mxCell id="iEyy7_naw8qGL7nsyMTN-15" value="&lt;i&gt;&lt;font style=&quot;font-size: 18px;&quot;&gt;Data&lt;/font&gt;&lt;/i&gt;" style="endArrow=classic;html=1;rounded=0;entryX=0;entryY=0.5;entryDx=0;entryDy=0;" parent="1" target="iEyy7_naw8qGL7nsyMTN-2" edge="1">
          <mxGeometry y="15" width="50" height="50" relative="1" as="geometry">
            <mxPoint x="10" y="135" as="sourcePoint" />
            <mxPoint x="490" y="360" as="targetPoint" />
            <mxPoint as="offset" />
          </mxGeometry>
        </mxCell>
        <mxCell id="iEyy7_naw8qGL7nsyMTN-20" value="" style="endArrow=none;html=1;rounded=1;curved=0;" parent="1" edge="1">
          <mxGeometry width="50" height="50" relative="1" as="geometry">
            <mxPoint x="10" y="80" as="sourcePoint" />
            <mxPoint x="70" y="80" as="targetPoint" />
            <Array as="points">
              <mxPoint x="20" y="70" />
              <mxPoint x="30" y="40" />
              <mxPoint x="50" y="110" />
              <mxPoint x="60" y="50" />
            </Array>
          </mxGeometry>
        </mxCell>
        <mxCell id="iEyy7_naw8qGL7nsyMTN-21" value="" style="endArrow=none;html=1;rounded=1;curved=0;" parent="1" edge="1">
          <mxGeometry width="50" height="50" relative="1" as="geometry">
            <mxPoint x="70" y="80" as="sourcePoint" />
            <mxPoint x="150" y="70" as="targetPoint" />
            <Array as="points">
              <mxPoint x="80" y="70" />
              <mxPoint x="90" y="40" />
              <mxPoint x="110" y="100" />
              <mxPoint x="120" y="50" />
              <mxPoint x="130" y="80" />
            </Array>
          </mxGeometry>
        </mxCell>
        <mxCell id="iEyy7_naw8qGL7nsyMTN-22" value="" style="endArrow=none;html=1;rounded=1;curved=0;" parent="1" source="iEyy7_naw8qGL7nsyMTN-24" edge="1">
          <mxGeometry width="50" height="50" relative="1" as="geometry">
            <mxPoint x="220" y="70" as="sourcePoint" />
            <mxPoint x="280" y="70" as="targetPoint" />
            <Array as="points">
              <mxPoint x="230" y="60" />
              <mxPoint x="240" y="30" />
              <mxPoint x="260" y="100" />
              <mxPoint x="270" y="40" />
            </Array>
          </mxGeometry>
        </mxCell>
        <mxCell id="iEyy7_naw8qGL7nsyMTN-25" value="" style="endArrow=none;html=1;rounded=1;curved=0;" parent="1" target="iEyy7_naw8qGL7nsyMTN-24" edge="1">
          <mxGeometry width="50" height="50" relative="1" as="geometry">
            <mxPoint x="220" y="70" as="sourcePoint" />
            <mxPoint x="280" y="70" as="targetPoint" />
            <Array as="points" />
          </mxGeometry>
        </mxCell>
        <mxCell id="iEyy7_naw8qGL7nsyMTN-24" value="" style="rounded=0;whiteSpace=wrap;html=1;fillColor=none;strokeColor=#ff0000;" parent="1" vertex="1">
          <mxGeometry x="220" y="20" width="60" height="80" as="geometry" />
        </mxCell>
        <mxCell id="iEyy7_naw8qGL7nsyMTN-26" value="" style="shape=or;whiteSpace=wrap;html=1;rotation=-90;fillColor=none;strokeColor=#ff0000;" parent="1" vertex="1">
          <mxGeometry x="430" y="25" width="80" height="60" as="geometry" />
        </mxCell>
        <mxCell id="iEyy7_naw8qGL7nsyMTN-28" value="" style="endArrow=none;html=1;rounded=1;curved=0;" parent="1" edge="1">
          <mxGeometry width="50" height="50" relative="1" as="geometry">
            <mxPoint x="440" y="55" as="sourcePoint" />
            <mxPoint x="500" y="65" as="targetPoint" />
            <Array as="points">
              <mxPoint x="450" y="55" />
              <mxPoint x="460" y="35" />
              <mxPoint x="480" y="95" />
              <mxPoint x="490" y="55" />
            </Array>
          </mxGeometry>
        </mxCell>
        <mxCell id="iEyy7_naw8qGL7nsyMTN-29" value="" style="endArrow=none;html=1;rounded=1;curved=0;" parent="1" edge="1">
          <mxGeometry width="50" height="50" relative="1" as="geometry">
            <mxPoint x="440" y="65" as="sourcePoint" />
            <mxPoint x="440" y="65" as="targetPoint" />
            <Array as="points" />
          </mxGeometry>
        </mxCell>
        <mxCell id="iEyy7_naw8qGL7nsyMTN-31" value="&lt;font style=&quot;font-size: 18px;&quot;&gt;Clock domain&lt;/font&gt;" style="text;html=1;align=center;verticalAlign=middle;whiteSpace=wrap;rounded=0;" parent="1" vertex="1">
          <mxGeometry x="310" y="300" width="120" height="30" as="geometry" />
        </mxCell>
        <mxCell id="iEyy7_naw8qGL7nsyMTN-32" value="" style="endArrow=classic;html=1;rounded=0;exitX=1;exitY=0.5;exitDx=0;exitDy=0;" parent="1" edge="1" source="iEyy7_naw8qGL7nsyMTN-31">
          <mxGeometry width="50" height="50" relative="1" as="geometry">
            <mxPoint x="415" y="314.83" as="sourcePoint" />
            <mxPoint x="445" y="314.83" as="targetPoint" />
          </mxGeometry>
        </mxCell>
        <mxCell id="iEyy7_naw8qGL7nsyMTN-33" value="&lt;font style=&quot;font-size: 18px;&quot;&gt;Freq domain&lt;/font&gt;" style="text;html=1;align=center;verticalAlign=middle;whiteSpace=wrap;rounded=0;" parent="1" vertex="1">
          <mxGeometry x="450" y="300" width="110" height="30" as="geometry" />
        </mxCell>
        <mxCell id="iEyy7_naw8qGL7nsyMTN-36" value="" style="endArrow=none;html=1;rounded=0;" parent="1" edge="1">
          <mxGeometry width="50" height="50" relative="1" as="geometry">
            <mxPoint x="142.5" y="335" as="sourcePoint" />
            <mxPoint x="152.5" y="375" as="targetPoint" />
          </mxGeometry>
        </mxCell>
        <mxCell id="iEyy7_naw8qGL7nsyMTN-37" value="" style="endArrow=none;html=1;rounded=0;" parent="1" edge="1">
          <mxGeometry width="50" height="50" relative="1" as="geometry">
            <mxPoint x="152.5" y="375" as="sourcePoint" />
            <mxPoint x="162.5" y="335" as="targetPoint" />
          </mxGeometry>
        </mxCell>
        <mxCell id="iEyy7_naw8qGL7nsyMTN-38" value="" style="endArrow=none;html=1;rounded=0;" parent="1" edge="1">
          <mxGeometry width="50" height="50" relative="1" as="geometry">
            <mxPoint x="182.5" y="375" as="sourcePoint" />
            <mxPoint x="162.5" y="335" as="targetPoint" />
          </mxGeometry>
        </mxCell>
        <mxCell id="iEyy7_naw8qGL7nsyMTN-39" value="" style="endArrow=none;html=1;rounded=0;" parent="1" edge="1">
          <mxGeometry width="50" height="50" relative="1" as="geometry">
            <mxPoint x="212.5" y="335" as="sourcePoint" />
            <mxPoint x="182.5" y="375" as="targetPoint" />
          </mxGeometry>
        </mxCell>
        <mxCell id="iEyy7_naw8qGL7nsyMTN-40" value="" style="endArrow=none;html=1;rounded=0;" parent="1" edge="1">
          <mxGeometry width="50" height="50" relative="1" as="geometry">
            <mxPoint x="212.5" y="335" as="sourcePoint" />
            <mxPoint x="252.5" y="375" as="targetPoint" />
          </mxGeometry>
        </mxCell>
        <mxCell id="iEyy7_naw8qGL7nsyMTN-41" value="" style="endArrow=none;html=1;rounded=0;" parent="1" edge="1">
          <mxGeometry width="50" height="50" relative="1" as="geometry">
            <mxPoint x="252.5" y="375" as="sourcePoint" />
            <mxPoint x="297.5" y="335" as="targetPoint" />
          </mxGeometry>
        </mxCell>
        <mxCell id="iEyy7_naw8qGL7nsyMTN-44" value="" style="rounded=0;whiteSpace=wrap;html=1;fillColor=none;strokeColor=#ff0000;" parent="1" vertex="1">
          <mxGeometry x="140" y="300" width="160" height="80" as="geometry" />
        </mxCell>
        <mxCell id="iEyy7_naw8qGL7nsyMTN-49" value="" style="endArrow=none;html=1;rounded=1;curved=0;" parent="1" edge="1">
          <mxGeometry width="50" height="50" relative="1" as="geometry">
            <mxPoint x="340" y="350" as="sourcePoint" />
            <mxPoint x="400" y="360" as="targetPoint" />
            <Array as="points">
              <mxPoint x="350" y="350" />
              <mxPoint x="360" y="330" />
              <mxPoint x="380" y="390" />
              <mxPoint x="390" y="350" />
            </Array>
          </mxGeometry>
        </mxCell>
        <mxCell id="iEyy7_naw8qGL7nsyMTN-52" value="" style="endArrow=none;html=1;rounded=1;curved=0;" parent="1" edge="1">
          <mxGeometry width="50" height="50" relative="1" as="geometry">
            <mxPoint x="460" y="380" as="sourcePoint" />
            <mxPoint x="550" y="380" as="targetPoint" />
            <Array as="points">
              <mxPoint x="470" y="330" />
              <mxPoint x="480" y="380" />
              <mxPoint x="520" y="380" />
              <mxPoint x="530" y="330" />
              <mxPoint x="540" y="380" />
            </Array>
          </mxGeometry>
        </mxCell>
        <mxCell id="iEyy7_naw8qGL7nsyMTN-53" value="&lt;b&gt;&lt;font style=&quot;font-size: 18px;&quot;&gt;Frames&lt;/font&gt;&lt;/b&gt;" style="text;html=1;align=center;verticalAlign=middle;whiteSpace=wrap;rounded=0;" parent="1" vertex="1">
          <mxGeometry x="220" y="100" width="60" height="30" as="geometry" />
        </mxCell>
        <mxCell id="iEyy7_naw8qGL7nsyMTN-54" value="&lt;b&gt;&lt;font style=&quot;font-size: 18px;&quot;&gt;Windowed Frames&lt;/font&gt;&lt;/b&gt;" style="text;html=1;align=center;verticalAlign=middle;whiteSpace=wrap;rounded=0;" parent="1" vertex="1">
          <mxGeometry x="440" y="100" width="60" height="30" as="geometry" />
        </mxCell>
        <mxCell id="iEyy7_naw8qGL7nsyMTN-55" value="&lt;b&gt;&lt;font style=&quot;font-size: 18px;&quot;&gt;Spectrum&lt;/font&gt;&lt;/b&gt;" style="text;html=1;align=center;verticalAlign=middle;whiteSpace=wrap;rounded=0;" parent="1" vertex="1">
          <mxGeometry x="400" y="383" width="60" height="30" as="geometry" />
        </mxCell>
        <mxCell id="iEyy7_naw8qGL7nsyMTN-56" value="&lt;b&gt;&lt;font style=&quot;font-size: 18px;&quot;&gt;Mel Spectrum&lt;/font&gt;&lt;/b&gt;" style="text;html=1;align=center;verticalAlign=middle;whiteSpace=wrap;rounded=0;" parent="1" vertex="1">
          <mxGeometry x="160" y="380" width="130" height="30" as="geometry" />
        </mxCell>
      </root>
    </mxGraphModel>
  </diagram>
</mxfile>
